<mxfile host="app.diagrams.net" agent="Mozilla/5.0 (Macintosh; Intel Mac OS X 10_15_7) AppleWebKit/537.36 (KHTML, like Gecko) Chrome/132.0.0.0 Safari/537.36" version="26.0.11">
  <diagram name="Page-1" id="LjOB1kVfF4TRjhF8uysn">
    <mxGraphModel dx="4930" dy="3590" grid="1" gridSize="10" guides="1" tooltips="1" connect="1" arrows="1" fold="1" page="1" pageScale="1" pageWidth="850" pageHeight="1100" math="0" shadow="0">
      <root>
        <mxCell id="0" />
        <mxCell id="1" parent="0" />
        <mxCell id="WkI4s-2Gp-hY98LB0IXU-2" value="&lt;p style=&quot;margin: 4px 0px 0px; text-align: center;&quot;&gt;&lt;font&gt;&lt;i&gt;&amp;lt;&amp;lt;Interface&amp;gt;&amp;gt;&lt;/i&gt;&lt;br&gt;&lt;span&gt;&lt;b&gt;LoggerInterface&lt;/b&gt;&lt;/span&gt;&lt;/font&gt;&lt;/p&gt;&lt;hr style=&quot;border-style: solid;&quot;&gt;&lt;p style=&quot;margin: 0px 0px 0px 4px; text-align: center;&quot;&gt;&lt;span style=&quot;background-color: initial;&quot;&gt;&lt;font&gt;&lt;br&gt;&lt;/font&gt;&lt;/span&gt;&lt;/p&gt;&lt;p style=&quot;margin: 0px 0px 0px 4px; text-align: center;&quot;&gt;&lt;span&gt;&amp;nbsp;void log(LoggerType loggerType, String message);&lt;/span&gt;&lt;/p&gt;" style="verticalAlign=top;align=left;overflow=fill;html=1;whiteSpace=wrap;strokeWidth=2;fontSize=16;fillColor=none;" vertex="1" parent="1">
          <mxGeometry x="-140" y="35" width="400" height="120" as="geometry" />
        </mxCell>
        <mxCell id="WkI4s-2Gp-hY98LB0IXU-3" value="&lt;p style=&quot;margin: 4px 0px 0px; text-align: center;&quot;&gt;&lt;span style=&quot;background-color: initial;&quot;&gt;&lt;font&gt;&lt;i&gt;&amp;lt;&amp;lt; Class &amp;gt;&amp;gt;&lt;/i&gt;&lt;/font&gt;&lt;/span&gt;&lt;/p&gt;&lt;p style=&quot;margin: 4px 0px 0px; text-align: center;&quot;&gt;&lt;b&gt;InfoLogger&lt;/b&gt;&lt;/p&gt;&lt;div style=&quot;height: 2px;&quot;&gt;&lt;br&gt;&lt;/div&gt;&lt;hr style=&quot;border-style: solid;&quot;&gt;&lt;p style=&quot;margin: 0px 0px 0px 4px;&quot;&gt;&lt;font&gt;&lt;br&gt;&lt;/font&gt;&lt;/p&gt;&lt;p style=&quot;margin: 0px 0px 0px 4px;&quot;&gt;&lt;font&gt;&amp;nbsp; &amp;nbsp;&amp;nbsp;&lt;/font&gt;&lt;span style=&quot;background-color: transparent;&quot;&gt;public InfoLogger(Logger nextLogger) {&lt;/span&gt;&lt;/p&gt;&lt;p style=&quot;margin: 0px 0px 0px 4px;&quot;&gt;&amp;nbsp; &amp;nbsp; &amp;nbsp; &amp;nbsp; super(nextLogger);&lt;/p&gt;&lt;p style=&quot;margin: 0px 0px 0px 4px;&quot;&gt;&amp;nbsp; &amp;nbsp; }&lt;/p&gt;&lt;p style=&quot;margin: 0px 0px 0px 4px;&quot;&gt;&lt;br&gt;&lt;/p&gt;&lt;p style=&quot;margin: 0px 0px 0px 4px;&quot;&gt;&amp;nbsp; &amp;nbsp; public void log(LoggerType loggerType, String message) {&lt;/p&gt;&lt;p style=&quot;margin: 0px 0px 0px 4px;&quot;&gt;&amp;nbsp; &amp;nbsp; &amp;nbsp; &amp;nbsp;&amp;nbsp;&lt;/p&gt;&lt;p style=&quot;margin: 0px 0px 0px 4px;&quot;&gt;&lt;span style=&quot;white-space: pre;&quot;&gt;&#x9;&lt;/span&gt;if (loggerType == LoggerType.INFO) {&lt;/p&gt;&lt;p style=&quot;margin: 0px 0px 0px 4px;&quot;&gt;&amp;nbsp; &amp;nbsp; &amp;nbsp; &amp;nbsp; &amp;nbsp; &amp;nbsp; System.out.println(&quot;INFO: &quot; + message);&lt;/p&gt;&lt;p style=&quot;margin: 0px 0px 0px 4px;&quot;&gt;&amp;nbsp; &amp;nbsp; &amp;nbsp; &amp;nbsp; &amp;nbsp; &amp;nbsp; return;&lt;/p&gt;&lt;p style=&quot;margin: 0px 0px 0px 4px;&quot;&gt;&amp;nbsp; &amp;nbsp; &amp;nbsp; &amp;nbsp; }&lt;/p&gt;&lt;p style=&quot;margin: 0px 0px 0px 4px;&quot;&gt;&lt;br&gt;&lt;/p&gt;&lt;p style=&quot;margin: 0px 0px 0px 4px;&quot;&gt;&amp;nbsp; &amp;nbsp; &amp;nbsp; &amp;nbsp; super.log(loggerType, message);&lt;/p&gt;&lt;p style=&quot;margin: 0px 0px 0px 4px;&quot;&gt;&amp;nbsp; &amp;nbsp; }&lt;/p&gt;" style="verticalAlign=top;align=left;overflow=fill;html=1;whiteSpace=wrap;strokeWidth=2;fontSize=16;fillColor=none;" vertex="1" parent="1">
          <mxGeometry x="-147.5" y="470" width="497.5" height="350" as="geometry" />
        </mxCell>
        <mxCell id="WkI4s-2Gp-hY98LB0IXU-4" value="&lt;p style=&quot;margin: 4px 0px 0px; text-align: center;&quot;&gt;&lt;span style=&quot;background-color: initial;&quot;&gt;&lt;font&gt;&lt;i&gt;&amp;lt;&amp;lt; Class &amp;gt;&amp;gt;&lt;/i&gt;&lt;/font&gt;&lt;/span&gt;&lt;/p&gt;&lt;p style=&quot;margin: 4px 0px 0px; text-align: center;&quot;&gt;&lt;font&gt;&lt;span&gt;&lt;b&gt;Logger&lt;/b&gt;&lt;/span&gt;&lt;/font&gt;&lt;/p&gt;&lt;hr style=&quot;border-style: solid;&quot;&gt;&lt;p style=&quot;margin: 0px 0px 0px 4px;&quot;&gt;&lt;font&gt;&lt;br&gt;&lt;/font&gt;&lt;/p&gt;&lt;p style=&quot;margin: 0px 0px 0px 4px;&quot;&gt;&lt;span style=&quot;white-space: pre;&quot;&gt;&#x9;&lt;/span&gt;&lt;span style=&quot;background-color: transparent;&quot;&gt;private final Logger nextLogger;&lt;br&gt;&lt;br&gt;    &lt;span style=&quot;white-space: pre;&quot;&gt;&#x9;&lt;/span&gt;public Logger(Logger nextLogger) {&lt;br&gt;        &lt;span style=&quot;white-space: pre;&quot;&gt;&#x9;&lt;/span&gt;&lt;span style=&quot;white-space: pre;&quot;&gt;&#x9;&lt;/span&gt;this.nextLogger = nextLogger;&lt;br&gt;    &lt;span style=&quot;white-space: pre;&quot;&gt;&#x9;&lt;/span&gt;}&lt;br&gt;&lt;br&gt;    &lt;span style=&quot;white-space: pre;&quot;&gt;&#x9;&lt;/span&gt;public void log(LoggerType loggerType, String message) {&lt;br&gt;        &lt;span style=&quot;white-space: pre;&quot;&gt;&lt;br&gt;&lt;/span&gt;&lt;/span&gt;&lt;/p&gt;&lt;p style=&quot;margin: 0px 0px 0px 4px;&quot;&gt;&lt;span style=&quot;background-color: transparent;&quot;&gt;&lt;span style=&quot;white-space: pre;&quot;&gt;&#x9;&lt;/span&gt;&lt;span style=&quot;white-space: pre;&quot;&gt;&#x9;&lt;/span&gt;if (nextLogger != null) {&lt;br&gt;            &lt;span style=&quot;white-space: pre;&quot;&gt;&#x9;&lt;/span&gt;&lt;span style=&quot;white-space: pre;&quot;&gt;&#x9;&lt;/span&gt;&lt;span style=&quot;white-space: pre;&quot;&gt;&#x9;&lt;/span&gt;nextLogger.log(loggerType, message);&lt;br&gt;        &lt;span style=&quot;white-space: pre;&quot;&gt;&#x9;&lt;span style=&quot;white-space: pre;&quot;&gt;&#x9;&lt;/span&gt;&lt;/span&gt;}&lt;/span&gt;&lt;/p&gt;&lt;p style=&quot;margin: 0px 0px 0px 4px;&quot;&gt;&lt;span style=&quot;background-color: transparent;&quot;&gt;&lt;br&gt;    &lt;span style=&quot;white-space: pre;&quot;&gt;&#x9;&lt;/span&gt;}&lt;/span&gt;&lt;br&gt;&lt;/p&gt;" style="verticalAlign=top;align=left;overflow=fill;html=1;whiteSpace=wrap;strokeWidth=2;fontSize=16;fillColor=none;" vertex="1" parent="1">
          <mxGeometry x="425" y="-80" width="480" height="350" as="geometry" />
        </mxCell>
        <mxCell id="WkI4s-2Gp-hY98LB0IXU-5" value="" style="endArrow=classic;html=1;rounded=0;exitX=0.5;exitY=0;exitDx=0;exitDy=0;strokeWidth=2;fontSize=16;entryX=0.25;entryY=1;entryDx=0;entryDy=0;" edge="1" parent="1" source="WkI4s-2Gp-hY98LB0IXU-3" target="WkI4s-2Gp-hY98LB0IXU-4">
          <mxGeometry relative="1" as="geometry">
            <mxPoint x="390" y="140" as="sourcePoint" />
            <mxPoint x="570" y="350" as="targetPoint" />
            <Array as="points">
              <mxPoint x="100" y="360" />
              <mxPoint x="545" y="360" />
            </Array>
          </mxGeometry>
        </mxCell>
        <mxCell id="WkI4s-2Gp-hY98LB0IXU-6" value="&lt;span style=&quot;background-color: rgb(251, 251, 251);&quot;&gt;extends&lt;/span&gt;" style="edgeLabel;resizable=0;html=1;;align=center;verticalAlign=middle;fontSize=16;" connectable="0" vertex="1" parent="WkI4s-2Gp-hY98LB0IXU-5">
          <mxGeometry relative="1" as="geometry" />
        </mxCell>
        <mxCell id="WkI4s-2Gp-hY98LB0IXU-7" value="" style="endArrow=classic;html=1;rounded=0;strokeWidth=2;exitX=0;exitY=0.5;exitDx=0;exitDy=0;entryX=1;entryY=0.5;entryDx=0;entryDy=0;fontSize=16;" edge="1" parent="1" source="WkI4s-2Gp-hY98LB0IXU-4" target="WkI4s-2Gp-hY98LB0IXU-2">
          <mxGeometry relative="1" as="geometry">
            <mxPoint x="660" y="-240" as="sourcePoint" />
            <mxPoint x="620" y="10" as="targetPoint" />
          </mxGeometry>
        </mxCell>
        <mxCell id="WkI4s-2Gp-hY98LB0IXU-8" value="&lt;span style=&quot;background-color: rgb(251, 251, 251);&quot;&gt;Implements&lt;/span&gt;" style="edgeLabel;resizable=0;html=1;;align=center;verticalAlign=middle;fontSize=16;" connectable="0" vertex="1" parent="WkI4s-2Gp-hY98LB0IXU-7">
          <mxGeometry relative="1" as="geometry" />
        </mxCell>
        <mxCell id="WkI4s-2Gp-hY98LB0IXU-9" value="&lt;p style=&quot;margin: 4px 0px 0px; text-align: center;&quot;&gt;&lt;span style=&quot;background-color: initial;&quot;&gt;&lt;font&gt;&lt;i&gt;&amp;lt;&amp;lt; Class &amp;gt;&amp;gt;&lt;/i&gt;&lt;/font&gt;&lt;/span&gt;&lt;/p&gt;&lt;p style=&quot;margin: 4px 0px 0px; text-align: center;&quot;&gt;&lt;b&gt;LoggingSystemDriver&lt;/b&gt;&lt;/p&gt;&lt;hr style=&quot;border-style: solid;&quot;&gt;&lt;p style=&quot;margin: 0px 0px 0px 4px;&quot;&gt;&lt;font&gt;&lt;br&gt;&lt;/font&gt;&lt;/p&gt;&lt;p style=&quot;margin: 0px 0px 0px 4px;&quot;&gt;&lt;font&gt;&amp;nbsp; &amp;nbsp;&amp;nbsp;&lt;/font&gt;&lt;span style=&quot;background-color: transparent;&quot;&gt;&amp;nbsp; public static void execute() {&lt;/span&gt;&lt;/p&gt;&lt;p style=&quot;margin: 0px 0px 0px 4px;&quot;&gt;&lt;br&gt;&lt;/p&gt;&lt;p style=&quot;margin: 0px 0px 0px 4px;&quot;&gt;&amp;nbsp; &amp;nbsp; &amp;nbsp; &amp;nbsp; // chain of responsibilities&lt;/p&gt;&lt;p style=&quot;margin: 0px 0px 0px 4px;&quot;&gt;&amp;nbsp; &amp;nbsp; &amp;nbsp; &amp;nbsp; Logger logger = new InfoLogger(new DebugLogger(new ErrorLogger(null)));&lt;/p&gt;&lt;p style=&quot;margin: 0px 0px 0px 4px;&quot;&gt;&lt;br&gt;&lt;/p&gt;&lt;p style=&quot;margin: 0px 0px 0px 4px;&quot;&gt;&amp;nbsp; &amp;nbsp; &amp;nbsp; &amp;nbsp; logger.log(LoggerType.DEBUG, &quot;debug message&quot;);&lt;/p&gt;&lt;p style=&quot;margin: 0px 0px 0px 4px;&quot;&gt;&amp;nbsp; &amp;nbsp; &amp;nbsp; &amp;nbsp; logger.log(LoggerType.INFO, &quot;info message&quot;);&lt;/p&gt;&lt;p style=&quot;margin: 0px 0px 0px 4px;&quot;&gt;&amp;nbsp; &amp;nbsp; &amp;nbsp; &amp;nbsp; logger.log(LoggerType.ERROR, &quot;error message&quot;);&lt;/p&gt;&lt;p style=&quot;margin: 0px 0px 0px 4px;&quot;&gt;&lt;br&gt;&lt;/p&gt;&lt;p style=&quot;margin: 0px 0px 0px 4px;&quot;&gt;&amp;nbsp; &amp;nbsp; }&lt;/p&gt;" style="verticalAlign=top;align=left;overflow=fill;html=1;whiteSpace=wrap;strokeWidth=2;fontSize=16;fillColor=none;" vertex="1" parent="1">
          <mxGeometry x="325" y="920" width="680" height="310" as="geometry" />
        </mxCell>
        <mxCell id="WkI4s-2Gp-hY98LB0IXU-10" value="&lt;p style=&quot;margin: 4px 0px 0px; text-align: center;&quot;&gt;&lt;i&gt;&lt;span style=&quot;background-color: initial;&quot;&gt;&lt;font&gt;&amp;lt;&amp;lt;&amp;nbsp;&lt;/font&gt;&lt;/span&gt;&lt;span style=&quot;text-align: left;&quot;&gt;enum&lt;/span&gt;&lt;span style=&quot;background-color: initial;&quot;&gt;&lt;font&gt;&amp;nbsp;&amp;gt;&amp;gt;&lt;/font&gt;&lt;/span&gt;&lt;/i&gt;&lt;/p&gt;&lt;p style=&quot;margin: 4px 0px 0px; text-align: center;&quot;&gt;&lt;span&gt;&lt;b&gt;LoggerType&lt;/b&gt;&lt;/span&gt;&lt;/p&gt;&lt;hr style=&quot;border-style: solid;&quot;&gt;&lt;p style=&quot;margin: 0px 0px 0px 4px;&quot;&gt;&lt;font&gt;&lt;br&gt;&lt;/font&gt;&lt;/p&gt;&lt;p style=&quot;margin: 0px 0px 0px 4px;&quot;&gt;&lt;font&gt;&amp;nbsp; &amp;nbsp;&amp;nbsp;&lt;/font&gt;&lt;span style=&quot;background-color: initial;&quot;&gt;&lt;span&gt;public enum LoggerType&amp;nbsp;{&lt;/span&gt;&lt;/span&gt;&lt;/p&gt;&lt;p style=&quot;margin: 0px 0px 0px 4px;&quot;&gt;&lt;span&gt;&amp;nbsp; &amp;nbsp; &amp;nbsp; &amp;nbsp;&amp;nbsp;&lt;/span&gt;&lt;span style=&quot;background-color: transparent;&quot;&gt;INFO,&amp;nbsp;&lt;/span&gt;&lt;/p&gt;&lt;p style=&quot;margin: 0px 0px 0px 4px;&quot;&gt;&lt;span style=&quot;background-color: transparent;&quot;&gt;&lt;span style=&quot;white-space: pre;&quot;&gt;&#x9;&lt;/span&gt;DEBUG,&amp;nbsp;&lt;/span&gt;&lt;/p&gt;&lt;p style=&quot;margin: 0px 0px 0px 4px;&quot;&gt;&lt;span style=&quot;background-color: transparent;&quot;&gt;&lt;span style=&quot;white-space: pre;&quot;&gt;&#x9;&lt;/span&gt;ERROR&lt;/span&gt;&lt;/p&gt;&lt;p style=&quot;margin: 0px 0px 0px 4px;&quot;&gt;&lt;span&gt;&amp;nbsp; &amp;nbsp; }&lt;/span&gt;&lt;/p&gt;&lt;div&gt;&lt;br&gt;&lt;/div&gt;" style="verticalAlign=top;align=left;overflow=fill;html=1;whiteSpace=wrap;strokeWidth=2;fillColor=none;fontSize=16;" vertex="1" parent="1">
          <mxGeometry x="1010" y="-5" width="270" height="200" as="geometry" />
        </mxCell>
        <mxCell id="WkI4s-2Gp-hY98LB0IXU-13" value="&lt;p style=&quot;margin: 4px 0px 0px; text-align: center;&quot;&gt;&lt;span style=&quot;background-color: initial;&quot;&gt;&lt;font&gt;&lt;i&gt;&amp;lt;&amp;lt; Class &amp;gt;&amp;gt;&lt;/i&gt;&lt;/font&gt;&lt;/span&gt;&lt;/p&gt;&lt;p style=&quot;margin: 4px 0px 0px; text-align: center;&quot;&gt;&lt;b&gt;DebugLogger&lt;/b&gt;&lt;/p&gt;&lt;div style=&quot;height: 2px;&quot;&gt;&lt;br&gt;&lt;/div&gt;&lt;hr style=&quot;border-style: solid;&quot;&gt;&lt;p style=&quot;margin: 0px 0px 0px 4px;&quot;&gt;&lt;font&gt;&lt;br&gt;&lt;/font&gt;&lt;/p&gt;&lt;p style=&quot;margin: 0px 0px 0px 4px;&quot;&gt;&lt;font&gt;&amp;nbsp; &amp;nbsp;&amp;nbsp;&lt;/font&gt;&lt;span style=&quot;background-color: transparent;&quot;&gt;public DebugLogger(Logger nextLogger) {&lt;/span&gt;&lt;/p&gt;&lt;p style=&quot;margin: 0px 0px 0px 4px;&quot;&gt;&amp;nbsp; &amp;nbsp; &amp;nbsp; &amp;nbsp; super(nextLogger);&lt;/p&gt;&lt;p style=&quot;margin: 0px 0px 0px 4px;&quot;&gt;&amp;nbsp; &amp;nbsp; }&lt;/p&gt;&lt;p style=&quot;margin: 0px 0px 0px 4px;&quot;&gt;&lt;br&gt;&lt;/p&gt;&lt;p style=&quot;margin: 0px 0px 0px 4px;&quot;&gt;&amp;nbsp; &amp;nbsp; public void log(LoggerType loggerType, String message) {&lt;/p&gt;&lt;p style=&quot;margin: 0px 0px 0px 4px;&quot;&gt;&lt;br&gt;&lt;/p&gt;&lt;p style=&quot;margin: 0px 0px 0px 4px;&quot;&gt;&amp;nbsp; &amp;nbsp; &amp;nbsp; &amp;nbsp; if (loggerType == LoggerType.DEBUG) {&lt;/p&gt;&lt;p style=&quot;margin: 0px 0px 0px 4px;&quot;&gt;&amp;nbsp; &amp;nbsp; &amp;nbsp; &amp;nbsp; &amp;nbsp; &amp;nbsp; System.out.println(&quot;DEBUG: &quot; + message);&lt;/p&gt;&lt;p style=&quot;margin: 0px 0px 0px 4px;&quot;&gt;&amp;nbsp; &amp;nbsp; &amp;nbsp; &amp;nbsp; &amp;nbsp; &amp;nbsp; return;&lt;/p&gt;&lt;p style=&quot;margin: 0px 0px 0px 4px;&quot;&gt;&amp;nbsp; &amp;nbsp; &amp;nbsp; &amp;nbsp; }&lt;/p&gt;&lt;p style=&quot;margin: 0px 0px 0px 4px;&quot;&gt;&lt;br&gt;&lt;/p&gt;&lt;p style=&quot;margin: 0px 0px 0px 4px;&quot;&gt;&amp;nbsp; &amp;nbsp; &amp;nbsp; &amp;nbsp; super.log(loggerType, message);&lt;/p&gt;&lt;p style=&quot;margin: 0px 0px 0px 4px;&quot;&gt;&amp;nbsp; &amp;nbsp; }&lt;/p&gt;" style="verticalAlign=top;align=left;overflow=fill;html=1;whiteSpace=wrap;strokeWidth=2;fontSize=16;fillColor=none;" vertex="1" parent="1">
          <mxGeometry x="416.25" y="470" width="497.5" height="350" as="geometry" />
        </mxCell>
        <mxCell id="WkI4s-2Gp-hY98LB0IXU-14" value="&lt;p style=&quot;margin: 4px 0px 0px; text-align: center;&quot;&gt;&lt;span style=&quot;background-color: initial;&quot;&gt;&lt;font&gt;&lt;i&gt;&amp;lt;&amp;lt; Class &amp;gt;&amp;gt;&lt;/i&gt;&lt;/font&gt;&lt;/span&gt;&lt;/p&gt;&lt;p style=&quot;margin: 4px 0px 0px; text-align: center;&quot;&gt;&lt;b&gt;ErrorLogger&lt;/b&gt;&lt;/p&gt;&lt;hr style=&quot;border-style: solid;&quot;&gt;&lt;p style=&quot;margin: 0px 0px 0px 4px;&quot;&gt;&lt;font&gt;&lt;br&gt;&lt;/font&gt;&lt;/p&gt;&lt;p style=&quot;margin: 0px 0px 0px 4px;&quot;&gt;&lt;font&gt;&amp;nbsp; &amp;nbsp;&amp;nbsp;&lt;/font&gt;&lt;span style=&quot;background-color: transparent;&quot;&gt;public ErrorLogger(Logger nextLogger) {&lt;/span&gt;&lt;/p&gt;&lt;p style=&quot;margin: 0px 0px 0px 4px;&quot;&gt;&amp;nbsp; &amp;nbsp; &amp;nbsp; &amp;nbsp; super(nextLogger);&lt;/p&gt;&lt;p style=&quot;margin: 0px 0px 0px 4px;&quot;&gt;&amp;nbsp; &amp;nbsp; }&lt;/p&gt;&lt;p style=&quot;margin: 0px 0px 0px 4px;&quot;&gt;&lt;br&gt;&lt;/p&gt;&lt;p style=&quot;margin: 0px 0px 0px 4px;&quot;&gt;&amp;nbsp; &amp;nbsp; public void log(LoggerType loggerType, String message) {&lt;/p&gt;&lt;p style=&quot;margin: 0px 0px 0px 4px;&quot;&gt;&lt;br&gt;&lt;/p&gt;&lt;p style=&quot;margin: 0px 0px 0px 4px;&quot;&gt;&amp;nbsp; &amp;nbsp; &amp;nbsp; &amp;nbsp; if (loggerType == LoggerType.ERROR) {&lt;/p&gt;&lt;p style=&quot;margin: 0px 0px 0px 4px;&quot;&gt;&amp;nbsp; &amp;nbsp; &amp;nbsp; &amp;nbsp; &amp;nbsp; &amp;nbsp; System.out.println(&quot;ERROR: &quot; + message);&lt;/p&gt;&lt;p style=&quot;margin: 0px 0px 0px 4px;&quot;&gt;&amp;nbsp; &amp;nbsp; &amp;nbsp; &amp;nbsp; &amp;nbsp; &amp;nbsp; return;&lt;/p&gt;&lt;p style=&quot;margin: 0px 0px 0px 4px;&quot;&gt;&amp;nbsp; &amp;nbsp; &amp;nbsp; &amp;nbsp; }&lt;/p&gt;&lt;p style=&quot;margin: 0px 0px 0px 4px;&quot;&gt;&lt;br&gt;&lt;/p&gt;&lt;p style=&quot;margin: 0px 0px 0px 4px;&quot;&gt;&amp;nbsp; &amp;nbsp; &amp;nbsp; &amp;nbsp; super.log(loggerType, message);&lt;/p&gt;&lt;p style=&quot;margin: 0px 0px 0px 4px;&quot;&gt;&amp;nbsp; &amp;nbsp; }&lt;/p&gt;" style="verticalAlign=top;align=left;overflow=fill;html=1;whiteSpace=wrap;strokeWidth=2;fontSize=16;fillColor=none;" vertex="1" parent="1">
          <mxGeometry x="970" y="470" width="497.5" height="350" as="geometry" />
        </mxCell>
        <mxCell id="WkI4s-2Gp-hY98LB0IXU-15" value="" style="endArrow=classic;html=1;rounded=0;exitX=0.5;exitY=0;exitDx=0;exitDy=0;strokeWidth=2;fontSize=16;entryX=0.5;entryY=1;entryDx=0;entryDy=0;" edge="1" parent="1" source="WkI4s-2Gp-hY98LB0IXU-13" target="WkI4s-2Gp-hY98LB0IXU-4">
          <mxGeometry relative="1" as="geometry">
            <mxPoint x="424.75" y="390" as="sourcePoint" />
            <mxPoint x="868.75" y="270" as="targetPoint" />
          </mxGeometry>
        </mxCell>
        <mxCell id="WkI4s-2Gp-hY98LB0IXU-16" value="&lt;span style=&quot;background-color: rgb(251, 251, 251);&quot;&gt;extends&lt;/span&gt;" style="edgeLabel;resizable=0;html=1;;align=center;verticalAlign=middle;fontSize=16;" connectable="0" vertex="1" parent="WkI4s-2Gp-hY98LB0IXU-15">
          <mxGeometry relative="1" as="geometry" />
        </mxCell>
        <mxCell id="WkI4s-2Gp-hY98LB0IXU-17" value="" style="endArrow=classic;html=1;rounded=0;exitX=0.5;exitY=0;exitDx=0;exitDy=0;strokeWidth=2;fontSize=16;entryX=0.75;entryY=1;entryDx=0;entryDy=0;" edge="1" parent="1" source="WkI4s-2Gp-hY98LB0IXU-14" target="WkI4s-2Gp-hY98LB0IXU-4">
          <mxGeometry relative="1" as="geometry">
            <mxPoint x="1050" y="390" as="sourcePoint" />
            <mxPoint x="1050" y="270" as="targetPoint" />
            <Array as="points">
              <mxPoint x="1219" y="360" />
              <mxPoint x="785" y="360" />
            </Array>
          </mxGeometry>
        </mxCell>
        <mxCell id="WkI4s-2Gp-hY98LB0IXU-18" value="&lt;span style=&quot;background-color: rgb(251, 251, 251);&quot;&gt;extends&lt;/span&gt;" style="edgeLabel;resizable=0;html=1;;align=center;verticalAlign=middle;fontSize=16;" connectable="0" vertex="1" parent="WkI4s-2Gp-hY98LB0IXU-17">
          <mxGeometry relative="1" as="geometry" />
        </mxCell>
      </root>
    </mxGraphModel>
  </diagram>
</mxfile>
